<svg width="19" height="16" viewBox="0 0 19 21" fill="none" xmlns="http://www.w3.org/2000/svg">
<path d="M6.25 9.375V11.4583H4.16667V9.375H6.25ZM10.4167 9.375V11.4583H8.33333V9.375H10.4167ZM14.5833 9.375V11.4583H12.5V9.375H14.5833ZM16.6667 2.08333C17.2192 2.08333 17.7491 2.30283 18.1398 2.69353C18.5305 3.08423 18.75 3.61413 18.75 4.16667V18.75C18.75 19.3025 18.5305 19.8324 18.1398 20.2231C17.7491 20.6138 17.2192 20.8333 16.6667 20.8333H2.08333C1.5308 20.8333 1.00089 20.6138 0.610194 20.2231C0.219493 19.8324 0 19.3025 0 18.75V4.16667C0 3.61413 0.219493 3.08423 0.610194 2.69353C1.00089 2.30283 1.5308 2.08333 2.08333 2.08333H3.125V0H5.20833V2.08333H13.5417V0H15.625V2.08333H16.6667ZM16.6667 18.75V7.29167H2.08333V18.75H16.6667ZM6.25 13.5417V15.625H4.16667V13.5417H6.25ZM10.4167 13.5417V15.625H8.33333V13.5417H10.4167ZM14.5833 13.5417V15.625H12.5V13.5417H14.5833Z" fill="#444444"/>
</svg>
