<svg width="14" height="14" viewBox="0 0 14 14" fill="none" xmlns="http://www.w3.org/2000/svg">
<path d="M13.1697 6.7765C13.1697 8.57375 12.4759 10.2974 11.241 11.5682C10.0061 12.8391 8.33126 13.553 6.58485 13.553C4.83844 13.553 3.16356 12.8391 1.92866 11.5682C0.693759 10.2974 0 8.57375 0 6.7765C0 4.97926 0.693759 3.25563 1.92866 1.98479C3.16356 0.713951 4.83844 0 6.58485 0C8.33126 0 10.0061 0.713951 11.241 1.98479C12.4759 3.25563 13.1697 4.97926 13.1697 6.7765V6.7765ZM6.58485 2.96472C6.58485 2.85239 6.54149 2.74467 6.46431 2.66524C6.38713 2.58581 6.28245 2.54119 6.17329 2.54119C6.06414 2.54119 5.95946 2.58581 5.88228 2.66524C5.8051 2.74467 5.76174 2.85239 5.76174 2.96472V7.62357C5.76176 7.69822 5.78096 7.77154 5.81739 7.8361C5.85381 7.90066 5.90617 7.95416 5.96916 7.99119L8.85003 9.68532C8.94458 9.7379 9.05535 9.75034 9.15869 9.71998C9.26202 9.68962 9.34972 9.61887 9.40304 9.52285C9.45635 9.42683 9.47106 9.31316 9.44401 9.20613C9.41697 9.09909 9.35031 9.00719 9.2583 8.95007L6.58485 7.37792V2.96472Z" fill="#444444"/>
</svg>
