<svg width="32" height="32" viewBox="0 0 32 32" fill="none" xmlns="http://www.w3.org/2000/svg">
<path d="M16 2C8.26875 2 2 8.26875 2 16C2 23.7312 8.26875 30 16 30C23.7312 30 30 23.7312 30 16C30 8.26875 23.7312 2 16 2ZM17.9844 13.7437C18.1219 13.7437 18.2344 13.8562 18.2344 13.9937V14.8438C18.2344 14.9813 18.1219 15.0938 17.9844 15.0938H13.7344C13.725 15.2313 13.725 15.3781 13.725 15.525V16.65H17.9813C18.1188 16.65 18.2313 16.7625 18.2313 16.9V17.75C18.2313 17.8875 18.1188 18 17.9813 18H13.9031C14.3812 19.9375 15.8188 21.0812 17.9594 21.0812C18.5813 21.0812 19.1188 21.0438 19.5781 20.9531C19.7313 20.9219 19.875 21.0406 19.875 21.1969V22.5344C19.875 22.6531 19.7906 22.7531 19.675 22.7781C19.1781 22.8844 18.6031 22.9375 17.9469 22.9375C14.5156 22.9375 12.2281 21.1 11.6906 18H10.75C10.6125 18 10.5 17.8875 10.5 17.75V16.9C10.5 16.7625 10.6125 16.65 10.75 16.65H11.5656V15.4969C11.5656 15.3594 11.5656 15.2219 11.575 15.0969H10.75C10.6125 15.0969 10.5 14.9844 10.5 14.8469V13.9969C10.5 13.8594 10.6125 13.7469 10.75 13.7469H11.7406C12.3563 10.8031 14.6156 9.0625 17.9469 9.0625C18.6 9.0625 19.1781 9.12187 19.675 9.23125C19.7906 9.25625 19.8719 9.35625 19.8719 9.475V10.8125H19.875C19.875 10.9719 19.7313 11.0875 19.575 11.0562C19.1156 10.9656 18.5813 10.9187 17.9594 10.9187C15.9156 10.9187 14.5094 11.9656 13.9719 13.7437H17.9844V13.7437Z" fill="#444444"/>
</svg>
