<svg width="24" height="19" viewBox="0 0 24 19" fill="none" xmlns="http://www.w3.org/2000/svg">
<path d="M16.3013 2.375H13.08C12.78 2.375 12.4913 2.48633 12.27 2.68672L8.58375 6.02656C8.58 6.03027 8.57625 6.0377 8.5725 6.04141C7.95 6.62031 7.96125 7.54434 8.49375 8.11953C8.97 8.63535 9.97125 8.77266 10.5975 8.21973C10.6013 8.21602 10.6088 8.21602 10.6125 8.2123L13.6088 5.4959C13.8525 5.27695 14.235 5.2918 14.4563 5.53301C14.6813 5.77422 14.6625 6.14902 14.4188 6.37168L13.44 7.25859L18.9 11.6449C19.0088 11.734 19.1063 11.8305 19.1963 11.9307V4.75L17.1488 2.72383C16.9275 2.50117 16.62 2.375 16.3013 2.375V2.375ZM20.4 4.75742V13.0662C20.4 13.723 20.9363 14.2537 21.6 14.2537H24V4.75742H20.4ZM22.2 13.0662C21.87 13.0662 21.6 12.799 21.6 12.4725C21.6 12.1459 21.87 11.8787 22.2 11.8787C22.53 11.8787 22.8 12.1459 22.8 12.4725C22.8 12.799 22.53 13.0662 22.2 13.0662ZM0 14.25H2.4C3.06375 14.25 3.6 13.7193 3.6 13.0625V4.75742H0V14.25ZM1.8 11.8787C2.13 11.8787 2.4 12.1459 2.4 12.4725C2.4 12.799 2.13 13.0662 1.8 13.0662C1.47 13.0662 1.2 12.799 1.2 12.4725C1.2 12.1422 1.47 11.8787 1.8 11.8787ZM18.1463 12.5689L12.5475 8.07129L11.4225 9.0918C10.3088 10.0975 8.6025 10.001 7.60875 8.92852C6.6 7.8375 6.67875 6.14902 7.77375 5.15449L10.8413 2.375H7.69875C7.38 2.375 7.07625 2.50117 6.85125 2.72383L4.8 4.75V13.0588H5.48625L8.88 16.098C9.9075 16.9256 11.4188 16.7697 12.255 15.7529L12.2625 15.7455L12.9338 16.3207C13.53 16.8031 14.4113 16.7104 14.895 16.1203L16.0725 14.6879L16.275 14.8512C16.7888 15.2631 17.5463 15.1889 17.9625 14.6768L18.3188 14.2426C18.7388 13.7305 18.66 12.9846 18.1463 12.5689V12.5689Z" fill="#457B9D"/>
</svg>
