<svg width="23" height="21" viewBox="0 0 23 21" fill="none" xmlns="http://www.w3.org/2000/svg">
<path d="M21.85 2.625H1.15C0.514984 2.625 0 3.21275 0 3.9375V17.0625C0 17.7872 0.514984 18.375 1.15 18.375H21.85C22.485 18.375 23 17.7872 23 17.0625V3.9375C23 3.21275 22.485 2.625 21.85 2.625ZM1.725 16.4062V13.7812C2.99539 13.7812 4.025 14.9563 4.025 16.4062H1.725ZM1.725 7.21875V4.59375H4.025C4.025 6.04365 2.99539 7.21875 1.725 7.21875ZM11.5 14.4375C9.91192 14.4375 8.625 12.6742 8.625 10.5C8.625 8.32535 9.91228 6.5625 11.5 6.5625C13.0877 6.5625 14.375 8.32535 14.375 10.5C14.375 12.6751 13.0874 14.4375 11.5 14.4375ZM21.275 16.4062H18.975C18.975 14.9563 20.0046 13.7812 21.275 13.7812V16.4062ZM21.275 7.21875C20.0046 7.21875 18.975 6.04365 18.975 4.59375H21.275V7.21875Z" fill="#457B9D"/>
</svg>
