<svg width="27" height="27" viewBox="0 0 27 27" fill="none" xmlns="http://www.w3.org/2000/svg">
<path d="M15.5475 24.75H11.4525C10.9238 24.75 10.4665 24.3821 10.3533 23.8658L9.89547 21.7462C9.28465 21.4786 8.70547 21.144 8.16859 20.7484L6.10197 21.4065C5.59797 21.5672 5.05008 21.3551 4.78572 20.8969L2.73372 17.352C2.47226 16.8936 2.56234 16.3153 2.95084 15.9581L4.55397 14.4956C4.48107 13.8331 4.48107 13.1646 4.55397 12.5021L2.95084 11.043C2.56176 10.6857 2.47165 10.1067 2.73372 9.648L4.78122 6.10088C5.04558 5.64266 5.59347 5.43053 6.09747 5.59125L8.16409 6.24938C8.43866 6.04593 8.72449 5.85813 9.02022 5.68688C9.3041 5.52678 9.59626 5.38183 9.89547 5.25262L10.3545 3.13538C10.467 2.61896 10.9239 2.25056 11.4525 2.25H15.5475C16.076 2.25056 16.5329 2.61896 16.6455 3.13538L17.109 5.25375C17.4249 5.39271 17.7325 5.54971 18.0303 5.724C18.3081 5.88466 18.5767 6.06082 18.8347 6.25162L20.9025 5.5935C21.4061 5.43338 21.9533 5.64543 22.2176 6.10312L24.2651 9.65025C24.5266 10.1087 24.4365 10.687 24.048 11.0441L22.4448 12.5066C22.5177 13.1691 22.5177 13.8376 22.4448 14.5001L24.048 15.9626C24.4365 16.3198 24.5266 16.8981 24.2651 17.3565L22.2176 20.9036C21.9533 21.3613 21.4061 21.5734 20.9025 21.4133L18.8347 20.7551C18.5731 20.9478 18.3012 21.1262 18.0202 21.2895C17.7253 21.4604 17.4211 21.6148 17.109 21.7519L16.6455 23.8658C16.5324 24.3817 16.0757 24.7496 15.5475 24.75ZM8.57247 18.2576L9.49497 18.9326C9.70293 19.0858 9.91967 19.2267 10.1441 19.3545C10.3553 19.4768 10.5727 19.5879 10.7955 19.6875L11.8451 20.1476L12.3592 22.5H14.643L15.1571 20.1465L16.2067 19.6864C16.6649 19.4843 17.0999 19.2331 17.5038 18.9371L18.4275 18.2621L20.7236 18.9934L21.8655 17.0156L20.0846 15.3923L20.2106 14.2538C20.2659 13.7558 20.2659 13.2532 20.2106 12.7553L20.0846 11.6168L21.8666 9.99L20.7236 8.01112L18.4275 8.74237L17.5038 8.06738C17.0997 7.77005 16.6649 7.51697 16.2067 7.3125L15.1571 6.85238L14.643 4.5H12.3592L11.8428 6.8535L10.7955 7.3125C10.5725 7.41042 10.3551 7.52046 10.1441 7.64213C9.92105 7.76962 9.70545 7.90972 9.49834 8.06175L8.57472 8.73675L6.27972 8.0055L5.13559 9.99L6.91647 11.6111L6.79047 12.7507C6.73512 13.2487 6.73512 13.7513 6.79047 14.2493L6.91647 15.3878L5.13559 17.0111L6.27747 18.9889L8.57247 18.2576ZM13.4955 18C11.0102 18 8.99547 15.9853 8.99547 13.5C8.99547 11.0147 11.0102 9 13.4955 9C15.9808 9 17.9955 11.0147 17.9955 13.5C17.9924 15.984 15.9795 17.9969 13.4955 18ZM13.4955 11.25C12.2663 11.2512 11.2656 12.2387 11.248 13.4678C11.2304 14.6968 12.2024 15.7125 13.431 15.749C14.6596 15.7855 15.6902 14.8292 15.7455 13.6013V14.0512V13.5C15.7455 12.2574 14.7381 11.25 13.4955 11.25Z" fill="#1D3557"/>
</svg>
