<svg width="36" height="36" viewBox="0 0 36 36" fill="none" xmlns="http://www.w3.org/2000/svg">
<path d="M7 6H23V15.8H25V6C25 5.46957 24.7893 4.96086 24.4142 4.58579C24.0391 4.21071 23.5304 4 23 4H7C6.46957 4 5.96086 4.21071 5.58579 4.58579C5.21071 4.96086 5 5.46957 5 6V30C5 30.5304 5.21071 31.0391 5.58579 31.4142C5.96086 31.7893 6.46957 32 7 32H23C23.5304 32 24.0391 31.7893 24.4142 31.4142C24.7893 31.0391 25 30.5304 25 30H7V6Z" fill="#E63946"/>
<path d="M28.1599 17.28C27.9686 17.1162 27.7225 17.0306 27.4708 17.0403C27.2192 17.05 26.9804 17.1544 26.8023 17.3324C26.6242 17.5105 26.5199 17.7493 26.5102 18.001C26.5004 18.2526 26.5861 18.4987 26.7499 18.69L30.1299 22H15.6299C15.3647 22 15.1103 22.1054 14.9228 22.2929C14.7352 22.4804 14.6299 22.7348 14.6299 23C14.6299 23.2652 14.7352 23.5196 14.9228 23.7071C15.1103 23.8947 15.3647 24 15.6299 24H30.1299L26.7499 27.46C26.6452 27.5497 26.5602 27.66 26.5002 27.784C26.4401 27.9081 26.4064 28.0432 26.4011 28.181C26.3958 28.3187 26.419 28.456 26.4692 28.5843C26.5195 28.7127 26.5958 28.8292 26.6932 28.9267C26.7907 29.0241 26.9072 29.1004 27.0356 29.1506C27.1639 29.2009 27.3012 29.2241 27.4389 29.2188C27.5767 29.2135 27.7118 29.1798 27.8359 29.1197C27.9599 29.0597 28.0702 28.9747 28.1599 28.87L33.9999 23.07L28.1599 17.28Z" fill="#E63946"/>
</svg>
