<svg width="45" height="45" viewBox="0 0 45 45" fill="none" xmlns="http://www.w3.org/2000/svg">
<path d="M44.3306 9.2569C42.765 9.95065 41.0831 10.4194 39.315 10.6313C41.1393 9.53963 42.5042 7.82152 43.155 5.79752C41.4409 6.81563 39.565 7.53226 37.6087 7.91627C36.2932 6.51164 34.5507 5.58063 32.6518 5.26779C30.7529 4.95494 28.8039 5.27776 27.1073 6.18612C25.4107 7.09449 24.0614 8.53758 23.269 10.2913C22.4766 12.0451 22.2853 14.0114 22.725 15.885C19.2519 15.7106 15.8543 14.8079 12.7526 13.2355C9.651 11.663 6.91466 9.45595 4.72121 6.75752C3.97121 8.05127 3.53996 9.55127 3.53996 11.1488C3.53912 12.5869 3.89327 14.003 4.57098 15.2714C5.24869 16.5398 6.22901 17.6213 7.42496 18.42C6.03798 18.3759 4.6816 18.0011 3.46871 17.3269V17.4394C3.46857 19.4564 4.16627 21.4114 5.44343 22.9725C6.72059 24.5337 8.49853 25.6049 10.4756 26.0044C9.18893 26.3526 7.83997 26.4039 6.53059 26.1544C7.08839 27.8899 8.17495 29.4076 9.63815 30.4949C11.1013 31.5822 12.8679 32.1847 14.6906 32.2181C11.5965 34.647 7.77537 35.9646 3.84184 35.9588C3.14505 35.959 2.44885 35.9183 1.75684 35.8369C5.7496 38.4041 10.3975 39.7666 15.1443 39.7613C31.2131 39.7613 39.9975 26.4525 39.9975 14.91C39.9975 14.535 39.9881 14.1563 39.9712 13.7813C41.6799 12.5456 43.1548 11.0155 44.3268 9.26252L44.3306 9.2569V9.2569Z" fill="#457B9D"/>
</svg>
