<svg width="19" height="19" viewBox="0 0 19 19" fill="none" xmlns="http://www.w3.org/2000/svg">
<path d="M18.8232 0.175627C18.9069 0.259503 18.9642 0.366135 18.9878 0.482277C19.0115 0.598419 19.0005 0.718952 18.9562 0.828904L11.9166 18.4275C11.8545 18.5825 11.7509 18.7173 11.6172 18.8172C11.4834 18.9171 11.3247 18.9782 11.1585 18.9937C10.9923 19.0092 10.825 18.9786 10.6751 18.9051C10.5252 18.8317 10.3984 18.7183 10.3088 18.5775L6.46412 12.5347L0.421308 8.69001C0.280149 8.60047 0.166471 8.47367 0.0928184 8.3236C0.0191653 8.17354 -0.0115996 8.00604 0.00391834 7.8396C0.0194363 7.67316 0.0806338 7.51424 0.180758 7.38038C0.280882 7.24652 0.416041 7.14292 0.57132 7.08101L18.1699 0.0437614C18.2798 -0.000501494 18.4004 -0.0114859 18.5165 0.0121726C18.6327 0.0358312 18.7393 0.09309 18.8232 0.176836V0.175627ZM7.67148 12.1814L11.0117 17.4294L16.7375 3.11537L7.67148 12.1814ZM15.8822 2.26007L1.56817 7.98592L6.81738 11.3249L15.8834 2.26007H15.8822Z" fill="#457B9D"/>
</svg>
